# xmcd
#
# Track frame offsets:
#	150
#	12854
#	27442
#	35761
#	49067
#	64195
#	78740
#	91445
#	103184
#	115492
#	127425
#	138900
#	148861
#	161241
#	173966
#	187763
#	198967
#	209876
#
# Disc length: 3035 seconds
#
# Revision: 1
# Processed by: cddbd v1.5.2PL0 Copyright (c) Steve Scherf et al.
# Submitted via: audiograbber 1.83.01
#
DISCID=1a0bd912
DTITLE=ΔΙΑΦΟΡΟΙ - Γρανίτα από 60s CD2
DYEAR=1900
DGENRE=
TTITLE0=Σου 'δωσα την αγάπη μου
TTITLE1=Η μπάμπολα
TTITLE2=Θημήσου το Σεπτέμβρη
TTITLE3=Εσένα που σε ξέρω τόσο λίγο
TTITLE4=Μικρή Ντιλάιλα
TTITLE5=Κιλιμάντζαρο
TTITLE6=Κορίνα
TTITLE7=Τσιγγάνα
TTITLE8=Ποιός είναι αυτός που αγαπάς
TTITLE9=Σακουμντί σακουμντί
TTITLE10=Θέλω να γελώ
TTITLE11=Μύλος η καρδιά μου
TTITLE12=Miss marple's theme
TTITLE13=Ηταν
TTITLE14=Σ'εκείνο το δρομάκι
TTITLE15=Παντοτινά οι δυό μαζί
TTITLE16=Ει έι πού τρέχει ο κόσμος
TTITLE17=Aranjuez mom amour
EXTD=
EXTT0=
EXTT1=
EXTT2=
EXTT3=
EXTT4=
EXTT5=
EXTT6=
EXTT7=
EXTT8=
EXTT9=
EXTT10=
EXTT11=
EXTT12=
EXTT13=
EXTT14=
EXTT15=
EXTT16=
EXTT17=
PLAYORDER=
